<?xml version="1.0" standalone="no"?>
<!DOCTYPE svg PUBLIC "-//W3C//DTD SVG 20010904//EN"
 "http://www.w3.org/TR/2001/REC-SVG-20010904/DTD/svg10.dtd">
<svg version="1.0" xmlns="http://www.w3.org/2000/svg"
 width="256.000000pt" height="256.000000pt" viewBox="0 0 256.000000 256.000000"
 preserveAspectRatio="xMidYMid meet">
<metadata>
Created by potrace 1.16, written by Peter Selinger 2001-2019
</metadata>
<g transform="translate(0.000000,256.000000) scale(0.100000,-0.100000)"
fill="#000000" stroke="none">
<path d="M255 2446 c-177 -82 -225 -312 -96 -459 81 -91 230 -119 343 -64 104
51 160 140 160 257 1 166 -121 290 -287 290 -52 0 -83 -6 -120 -24z"/>
<path d="M1715 1701 c-111 -32 -200 -90 -265 -172 l-40 -51 0 101 0 101 -240
0 -240 0 0 -795 0 -795 249 0 250 0 3 473 c3 461 4 473 26 532 12 32 35 75 51
95 89 110 298 120 385 19 71 -83 70 -78 74 -626 l3 -493 255 0 254 0 0 428 c0
473 -11 688 -40 805 -53 211 -181 341 -378 383 -94 19 -272 17 -347 -5z"/>
<path d="M120 885 l0 -795 255 0 255 0 0 795 0 795 -255 0 -255 0 0 -795z"/>
</g>
</svg>
